<svg height="512pt" viewBox="0 -16 512 512" width="512pt" xmlns="http://www.w3.org/2000/svg"><path d="m442.65625 256.125c-.613281-8.246094-7.804688-14.433594-16.066406-13.820312-8.261719.613281-14.464844 7.796874-13.851563 16.042968s7.808594 14.433594 16.070313 13.820313c8.261718-.613281 14.460937-7.796875 13.847656-16.042969zm0 0"/><path d="m420.167969 119.835938h15c8.28125 0 15-6.714844 15-15 0-8.285157-6.71875-15-15-15h-15c-8.285157 0-15 6.714843-15 15 0 8.285156 6.714843 15 15 15zm0 0"/><path d="m420.167969 179.839844h15c8.28125 0 15-6.714844 15-15s-6.71875-15-15-15h-15c-8.285157 0-15 6.714844-15 15s6.714843 15 15 15zm0 0"/><path d="m468.1875 0h-424.375c-24.15625 0-43.8125 19.65625-43.8125 43.8125v323.835938c0 24.15625 19.65625 43.8125 43.8125 43.8125h126.566406v38.886718h-43.324218c-8.28125 0-15 6.71875-15 15 0 8.285156 6.71875 15 15 15h257.890624c8.28125 0 15-6.714844 15-15 0-8.28125-6.71875-15-15-15h-43.324218v-38.886718h126.566406c24.160156 0 43.8125-19.65625 43.8125-43.8125v-323.835938c0-24.15625-19.65625-43.8125-43.8125-43.8125zm-424.375 30h424.375c7.617188 0 13.8125 6.195312 13.8125 13.8125v273.574219h-452v-273.574219c0-7.617188 6.195312-13.8125 13.8125-13.8125zm267.808594 420.351562h-111.242188v-38.890624h111.242188zm170.378906-82.703124c0 7.617187-6.195312 13.8125-13.8125 13.8125h-424.375c-7.617188 0-13.8125-6.199219-13.8125-13.8125v-20.261719h452zm0 0"/><path d="m255.039062 292.964844c.332032 0 .65625.003906.988282.003906 29.859375 0 57.992187-11.507812 79.3125-32.46875 21.554687-21.191406 33.566406-49.507812 33.820312-79.730469.257813-30.226562-11.273437-58.742187-32.464844-80.292969-21.128906-21.492187-49.34375-33.492187-79.472656-33.816406-.011718 0-.027344 0-.039062 0-.074219 0-.152344-.003906-.226563-.003906-.074219-.003906-.148437 0-.226562 0-.019531 0-.039063 0-.058594 0-62.265625-.375-113.308594 49.894531-113.835937 112.191406-.253907 30.226563 11.273437 58.742188 32.46875 80.296875 21.191406 21.550781 49.507812 33.5625 79.734374 33.820313zm-80.851562-98.15625h31.179688c1.820312 21.425781 7.785156 42.242187 17.476562 61.296875-9.667969-4.199219-18.535156-10.253907-26.148438-17.996094-11.839843-12.039063-19.5625-27.042969-22.507812-43.300781zm102.085938 0c-2.445313 20.671875-9.613282 40.515625-20.898438 57.96875-10.925781-17.542969-17.742188-37.378906-19.878906-57.96875zm-40.5625-30c2.449218-20.671875 9.613281-40.519532 20.902343-57.96875 10.925781 17.542968 17.742188 37.382812 19.878907 57.96875zm78.597656 74.296875c-7.746094 7.617187-16.71875 13.515625-26.460938 17.546875 10.144532-19.136719 16.5-40.148438 18.597656-61.84375h31.351563c-3.03125 16.742187-11.105469 32.125-23.488281 44.296875zm23.503906-74.296875h-31.191406c-1.820313-21.425782-7.785156-42.242188-17.472656-61.300782 9.667968 4.203126 18.539062 10.257813 26.15625 18 11.839843 12.042969 19.5625 27.042969 22.507812 43.300782zm-113.703125-61.792969c-10.125 19.125-16.472656 40.121094-18.570313 61.792969h-31.324218c5.125-28.011719 24.300781-51.125 49.894531-61.792969zm0 0"/></svg>