<svg height="512pt" viewBox="0 -17 512 512" width="512pt" xmlns="http://www.w3.org/2000/svg"><path d="m491 408.371094c-6.855469-8.21875-14.667969-14.714844-23.078125-19.308594 6.351563-8.625 10.105469-19.183594 10.105469-30.589844 0-23.898437-16.4375-44.105468-38.851563-50.460937v-59.347657c0-8.285156-6.71875-15-15-15h-153.175781v-60.699218h57.734375c8.285156 0 15-6.71875 15-15 0-19.28125-7.65625-39.515625-21-55.515625-6.855469-8.214844-14.667969-14.710938-23.078125-19.308594 6.351562-8.621094 10.105469-19.183594 10.105469-30.589844 0-28.976562-24.160157-52.550781-53.855469-52.550781-29.691406 0-53.851562 23.574219-53.851562 52.550781 0 11.4375 3.777343 22.027344 10.160156 30.664063-8.359375 4.59375-16.125 11.0625-22.949219 19.234375-13.34375 16-21 36.234375-21 55.515625 0 8.28125 6.714844 15 15 15h57.734375v60.699218h-153.355469c-8.285156 0-15 6.714844-15 15v59.347657c-22.417969 6.355469-38.855469 26.5625-38.855469 50.460937 0 11.4375 3.777344 22.023438 10.160157 30.664063-8.359375 4.589843-16.125 11.058593-22.945313 19.234375-13.347656 15.996094-21.003906 36.230468-21.003906 55.511718 0 8.285157 6.714844 15 15 15h145.46875c8.285156 0 15-6.714843 15-15 0-19.28125-7.65625-39.515624-21-55.511718-6.855469-8.21875-14.667969-14.714844-23.078125-19.308594 6.351563-8.625 10.105469-19.183594 10.105469-30.589844 0-23.898437-16.4375-44.105468-38.851563-50.460937v-44.347657h306.53125v44.347657c-22.417969 6.355469-38.855469 26.5625-38.855469 50.460937 0 11.4375 3.777344 22.023438 10.160157 30.664063-8.359375 4.589843-16.125 11.058593-22.949219 19.234375-13.34375 15.996094-21 36.230468-21 55.511718 0 8.285157 6.714844 15 15 15h145.46875c8.285156 0 15-6.714843 15-15 0-19.28125-7.65625-39.515624-21-55.511718zm-235.089844-378.371094c13.152344 0 23.851563 10.117188 23.851563 22.550781 0 12.4375-10.699219 22.554688-23.851563 22.554688s-23.851562-10.117188-23.851562-22.554688c0-12.433593 10.699218-22.550781 23.851562-22.550781zm-12.832031 75.101562h25.84375c19.1875 0 36.191406 18.375 42.355469 37.863282h-110.554688c6.164063-19.488282 23.167969-37.863282 42.355469-37.863282zm-210.621094 343.78125c6.164063-19.488281 23.167969-37.859374 42.355469-37.859374h25.84375c19.1875 0 36.191406 18.371093 42.355469 37.859374zm79.039063-90.410156c0 12.433594-10.699219 22.550782-23.851563 22.550782-13.152343 0-23.855469-10.117188-23.855469-22.550782 0-12.4375 10.703126-22.550781 23.855469-22.550781 13.152344 0 23.851563 10.113281 23.851563 22.550781zm312.679687-22.550781c13.148438 0 23.851563 10.113281 23.851563 22.550781 0 12.433594-10.703125 22.550782-23.851563 22.550782-13.152343 0-23.855469-10.117188-23.855469-22.550782 0-12.4375 10.703126-22.550781 23.855469-22.550781zm-55.1875 112.960937c6.164063-19.488281 23.167969-37.859374 42.355469-37.859374h25.84375c19.1875 0 36.191406 18.371093 42.355469 37.859374zm0 0"/></svg>